<svg xmlns="http://www.w3.org/2000/svg" width="1600" height="1000" viewBox="0 0 1600 1000">
<defs>
 <linearGradient id="land" x1="0" y1="0" x2="1" y2="1"><stop stop-color="#173d37"/><stop offset=".42" stop-color="#28533d"/><stop offset="1" stop-color="#172e32"/></linearGradient>
 <linearGradient id="river" x1="0" y1="0" x2="0" y2="1"><stop stop-color="#54b9bd"/><stop offset="1" stop-color="#276c82"/></linearGradient>
 <linearGradient id="hill" x1="0" y1="0" x2="0" y2="1"><stop stop-color="#768967"/><stop offset="1" stop-color="#243f37"/></linearGradient>
 <radialGradient id="glow"><stop stop-color="#f7d985" stop-opacity=".75"/><stop offset="1" stop-color="#f7d985" stop-opacity="0"/></radialGradient>
 <filter id="shadow"><feDropShadow dx="0" dy="7" stdDeviation="8" flood-color="#061519" flood-opacity=".7"/></filter>
 <filter id="soft"><feGaussianBlur stdDeviation="18"/></filter>
 <pattern id="grain" width="80" height="80" patternUnits="userSpaceOnUse"><circle cx="12" cy="18" r="1" fill="#fff" opacity=".035"/><circle cx="54" cy="61" r="1.3" fill="#fff" opacity=".03"/><path d="M0 38Q18 32 35 40T80 37" fill="none" stroke="#fff" opacity=".025"/></pattern>
</defs>
<rect width="1600" height="1000" fill="#10282b"/><path d="M0 95Q180 10 355 76T681 71T1012 57T1328 94T1600 32V1000H0Z" fill="url(#land)"/>
<!-- sea and rivers -->
<path d="M1420 0Q1340 160 1412 297T1428 545Q1354 675 1443 802T1390 1000H1600V0Z" fill="#143c4a"/><path d="M1457 0Q1374 162 1444 300T1461 548Q1389 678 1476 804T1429 1000" fill="none" stroke="#4c9ba5" stroke-width="32" opacity=".35"/>
<path d="M750 0C748 128 667 189 703 303S850 448 798 575 647 728 682 1000" fill="none" stroke="#143b48" stroke-width="72" opacity=".7"/><path d="M750 0C748 128 667 189 703 303S850 448 798 575 647 728 682 1000" fill="none" stroke="url(#river)" stroke-width="46"/><path d="M706 305C583 350 474 417 369 537S192 704 0 709" fill="none" stroke="#397f8b" stroke-width="26"/><path d="M804 574C935 601 1054 646 1157 745S1339 856 1434 872" fill="none" stroke="#3f8792" stroke-width="25"/>
<!-- mountain ranges -->
<g filter="url(#shadow)" fill="url(#hill)" stroke="#9eaa7d" stroke-opacity=".28" stroke-width="3">
 <path d="M25 272L111 103l50 93 70-153 86 179 63-99 99 203H13Z"/><path d="M1000 183l79-140 51 87 58-113 70 142 62-84 99 195H962Z"/><path d="M43 902l88-151 53 79 72-167 84 157 58-91 100 214H20Z"/><path d="M1052 954l91-181 60 102 67-156 85 167 68-107 99 208H1025Z"/>
</g>
<g fill="#dfe4c7" opacity=".33"><path d="M111 103l23 44 27 49-31-17-18 14-26-10z"/><path d="M231 43l31 65 24 51-34-21-26 19-25-18z"/><path d="M1079 43l25 44 25 43-29-15-20 12-20-13z"/><path d="M1188 17l29 61 22 49-31-20-22 17-21-18z"/></g>
<!-- forests -->
<g fill="#0e3029" stroke="#4f8060" stroke-width="2" opacity=".95">
 <g transform="translate(370 160)"><path d="M0 40l18-40 18 40h-11l14 27H-4l14-27z"/><path d="M55 52l21-47 22 47H85l14 30H52l14-30z"/><path d="M116 37l17-37 18 37h-10l12 26h-39l12-26z"/></g>
 <g transform="translate(1120 390)"><path d="M0 40l18-40 18 40h-11l14 27H-4l14-27z"/><path d="M55 52l21-47 22 47H85l14 30H52l14-30z"/><path d="M116 37l17-37 18 37h-10l12 26h-39l12-26z"/><path d="M170 55l22-50 23 50h-14l15 30h-49l15-30z"/></g>
 <g transform="translate(230 570)"><path d="M0 40l18-40 18 40h-11l14 27H-4l14-27z"/><path d="M55 52l21-47 22 47H85l14 30H52l14-30z"/><path d="M116 37l17-37 18 37h-10l12 26h-39l12-26z"/></g>
</g>
<!-- farm terraces -->
<g fill="none" stroke="#d6bf72" stroke-width="9" opacity=".45"><path d="M395 270q120-70 235 5"/><path d="M380 300q135-68 260 5"/><path d="M370 332q145-62 280 8"/><path d="M970 250q112-54 218 10"/><path d="M956 281q129-56 245 12"/><path d="M948 313q142-53 267 14"/></g>
<!-- mines -->
<g fill="#141f24" stroke="#c79263" stroke-width="5" filter="url(#shadow)"><path d="M210 500l65-84 75 84v52H210z"/><path d="M1190 520l63-90 78 90v54h-141z"/></g><g fill="#e0ac62"><circle cx="278" cy="509" r="14"/><circle cx="1259" cy="532" r="14"/></g>
<!-- central city illustration -->
<g transform="translate(705 425)" filter="url(#shadow)"><ellipse cx="95" cy="116" rx="150" ry="42" fill="#07191a" opacity=".5"/><path d="M-20 90h230v70H-20z" fill="#273b35" stroke="#d5b66f" stroke-width="4"/><path d="M-42 100L95 18l137 82z" fill="#743d2e" stroke="#e0bd70" stroke-width="5"/><path d="M30 95V30h130v65" fill="#2b4540"/><path d="M12 38L95-18l83 56z" fill="#92503a" stroke="#e1c47b" stroke-width="5"/><path d="M73 160v-55h44v55" fill="#e3a85b"/><path d="M-42 160h274" stroke="#e5ca86" stroke-width="7"/><circle cx="95" cy="93" r="95" fill="url(#glow)" opacity=".35"/></g>
<!-- roads -->
<g fill="none" stroke="#d9c28a" stroke-width="11" opacity=".22" stroke-dasharray="8 9"><path d="M800 550L480 320 278 520 130 430"/><path d="M800 550L1090 310 1259 532 1430 430"/><path d="M800 550L520 760 290 820"/><path d="M800 550L1040 760 1240 850"/></g>
<!-- atmospheric light -->
<ellipse cx="800" cy="500" rx="500" ry="350" fill="url(#glow)" opacity=".1"/><g fill="#d5eadc" opacity=".10" filter="url(#soft)"><ellipse cx="360" cy="380" rx="260" ry="35"/><ellipse cx="1120" cy="680" rx="300" ry="40"/></g>
<rect width="1600" height="1000" fill="url(#grain)"/><path d="M18 18h1564v964H18z" fill="none" stroke="#d9c27f" stroke-opacity=".2" stroke-width="5"/>
</svg>