<svg xmlns="http://www.w3.org/2000/svg" viewBox="0 0 320 180" shape-rendering="crispEdges" role="img" aria-label="历史万象仙乡像素田园修仙图（待替换资产）">
  <rect width="320" height="180" fill="#1a1620"/>
  <rect y="0" width="320" height="50" fill="#241f33"/>
  <rect y="50" width="320" height="28" fill="#332746"/>
  <rect y="78" width="320" height="102" fill="#273821"/>

  <rect x="0" y="44" width="44" height="6" fill="#f1d78b" opacity=".9"/>
  <rect x="58" y="31" width="7" height="7" fill="#f7e7a2"/>
  <rect x="80" y="24" width="4" height="4" fill="#d8ffe8"/>
  <rect x="238" y="21" width="5" height="5" fill="#d8ffe8"/>
  <rect x="268" y="36" width="6" height="6" fill="#f7e7a2"/>

  <rect x="8" y="64" width="42" height="30" fill="#354b36"/>
  <rect x="18" y="54" width="28" height="10" fill="#536943"/>
  <rect x="28" y="42" width="14" height="12" fill="#6f8450"/>
  <rect x="12" y="74" width="6" height="20" fill="#22351e"/>
  <rect x="40" y="72" width="5" height="22" fill="#22351e"/>

  <rect x="262" y="58" width="40" height="36" fill="#344a36"/>
  <rect x="272" y="45" width="24" height="13" fill="#5a7047"/>
  <rect x="280" y="31" width="10" height="14" fill="#7d9160"/>
  <rect x="266" y="72" width="5" height="22" fill="#22351e"/>
  <rect x="294" y="70" width="5" height="24" fill="#22351e"/>

  <rect x="0" y="94" width="320" height="10" fill="#4a5732"/>
  <rect x="0" y="104" width="320" height="76" fill="#2d4a25"/>
  <rect x="0" y="106" width="320" height="4" fill="#6e6139"/>
  <rect x="20" y="122" width="280" height="8" fill="#5b4a2e"/>
  <rect x="20" y="146" width="280" height="8" fill="#5b4a2e"/>
  <rect x="28" y="112" width="8" height="60" fill="#405f2c"/>
  <rect x="60" y="112" width="8" height="60" fill="#405f2c"/>
  <rect x="92" y="112" width="8" height="60" fill="#405f2c"/>
  <rect x="220" y="112" width="8" height="60" fill="#405f2c"/>
  <rect x="252" y="112" width="8" height="60" fill="#405f2c"/>
  <rect x="284" y="112" width="8" height="60" fill="#405f2c"/>

  <rect x="116" y="70" width="88" height="74" fill="#5e4a37"/>
  <rect x="104" y="62" width="112" height="14" fill="#8b5a3c"/>
  <rect x="112" y="52" width="96" height="10" fill="#aa7044"/>
  <rect x="132" y="86" width="16" height="18" fill="#273821"/>
  <rect x="172" y="86" width="16" height="18" fill="#273821"/>
  <rect x="152" y="106" width="18" height="38" fill="#2b2323"/>
  <rect x="158" y="112" width="6" height="8" fill="#f0c66a"/>
  <rect x="118" y="76" width="84" height="6" fill="#463424"/>

  <rect x="152" y="33" width="16" height="16" fill="#d5fff1"/>
  <rect x="148" y="49" width="24" height="6" fill="#97e8ce"/>
  <rect x="144" y="55" width="32" height="4" fill="#61b89f"/>
  <rect x="156" y="23" width="8" height="10" fill="#f7e7a2"/>
  <rect x="154" y="17" width="12" height="6" fill="#fff3b8"/>
  <rect x="150" y="25" width="4" height="4" fill="#fff3b8"/>
  <rect x="166" y="25" width="4" height="4" fill="#fff3b8"/>

  <rect x="123" y="39" width="6" height="6" fill="#87f7d0"/>
  <rect x="132" y="34" width="4" height="4" fill="#e1fff4"/>
  <rect x="190" y="37" width="5" height="5" fill="#87f7d0"/>
  <rect x="198" y="31" width="4" height="4" fill="#e1fff4"/>

  <rect x="40" y="132" width="8" height="8" fill="#9bd35d"/>
  <rect x="74" y="132" width="8" height="8" fill="#9bd35d"/>
  <rect x="236" y="132" width="8" height="8" fill="#9bd35d"/>
  <rect x="270" y="132" width="8" height="8" fill="#9bd35d"/>
  <rect x="38" y="156" width="10" height="8" fill="#f1d56b"/>
  <rect x="72" y="156" width="10" height="8" fill="#f1d56b"/>
  <rect x="234" y="156" width="10" height="8" fill="#f1d56b"/>
  <rect x="268" y="156" width="10" height="8" fill="#f1d56b"/>

  <rect x="4" y="4" width="312" height="4" fill="#6b4c37"/>
  <rect x="4" y="172" width="312" height="4" fill="#6b4c37"/>
  <rect x="4" y="4" width="4" height="172" fill="#6b4c37"/>
  <rect x="312" y="4" width="4" height="172" fill="#6b4c37"/>
  <rect x="8" y="8" width="304" height="2" fill="#d69a55" opacity=".65"/>
  <rect x="8" y="170" width="304" height="2" fill="#2c211b" opacity=".8"/>
</svg>
