<svg xmlns="http://www.w3.org/2000/svg" width="1024" height="1024" viewBox="0 0 1024 1024" shape-rendering="crispEdges">
<rect width="1024" height="1024" fill="#0d1117"/><rect x="112" y="144" width="800" height="720" rx="96" fill="#151b23"/><rect x="160" y="192" width="704" height="624" rx="64" fill="#1d2a1f"/>
<rect x="192" y="576" width="640" height="176" fill="#5b3a1f"/><rect x="192" y="576" width="640" height="24" fill="#8b5a2b"/>
<g fill="#2f8f46"><rect x="240" y="520" width="64" height="56"/><rect x="368" y="496" width="64" height="80"/><rect x="496" y="512" width="64" height="64"/><rect x="624" y="488" width="64" height="88"/><rect x="744" y="520" width="48" height="56"/></g>
<g fill="#74c365"><rect x="256" y="488" width="32" height="32"/><rect x="384" y="456" width="32" height="40"/><rect x="512" y="472" width="32" height="40"/><rect x="640" y="448" width="32" height="40"/><rect x="752" y="496" width="32" height="24"/></g>
<rect x="352" y="312" width="320" height="176" fill="#8b5a2b"/><rect x="320" y="280" width="384" height="56" fill="#c8a45c"/><rect x="384" y="360" width="80" height="128" fill="#0d1117"/><rect x="560" y="360" width="80" height="72" fill="#0d1117"/><rect x="588" y="376" width="24" height="24" fill="#c8a45c"/>
<g fill="#c8a45c"><rect x="496" y="208" width="32" height="32"/><rect x="464" y="240" width="96" height="32"/><rect x="432" y="272" width="160" height="32"/><rect x="496" y="160" width="32" height="32"/></g>
<text x="512" y="900" text-anchor="middle" font-family="monospace" font-size="88" font-weight="700" fill="#c8a45c">桃源乡</text></svg>