<svg xmlns="http://www.w3.org/2000/svg" width="1242" height="2688" viewBox="0 0 1242 2688" shape-rendering="crispEdges">
<rect width="1242" height="2688" fill="#0d1117"/><rect x="0" y="0" width="1242" height="980" fill="#101820"/>
<g fill="#e6edf3"><rect x="160" y="220" width="18" height="18"/><rect x="940" y="260" width="24" height="24"/><rect x="720" y="140" width="14" height="14"/><rect x="1060" y="520" width="16" height="16"/></g>
<rect x="221" y="740" width="800" height="720" rx="96" fill="#151b23"/><rect x="269" y="788" width="704" height="624" rx="64" fill="#1d2a1f"/>
<rect x="301" y="1172" width="640" height="176" fill="#5b3a1f"/><rect x="301" y="1172" width="640" height="24" fill="#8b5a2b"/>
<g fill="#2f8f46"><rect x="349" y="1116" width="64" height="56"/><rect x="477" y="1092" width="64" height="80"/><rect x="605" y="1108" width="64" height="64"/><rect x="733" y="1084" width="64" height="88"/><rect x="853" y="1116" width="48" height="56"/></g>
<g fill="#74c365"><rect x="365" y="1084" width="32" height="32"/><rect x="493" y="1052" width="32" height="40"/><rect x="621" y="1068" width="32" height="40"/><rect x="749" y="1044" width="32" height="40"/><rect x="861" y="1092" width="32" height="24"/></g>
<rect x="461" y="908" width="320" height="176" fill="#8b5a2b"/><rect x="429" y="876" width="384" height="56" fill="#c8a45c"/><rect x="493" y="956" width="80" height="128" fill="#0d1117"/><rect x="669" y="956" width="80" height="72" fill="#0d1117"/><rect x="697" y="972" width="24" height="24" fill="#c8a45c"/>
<g fill="#c8a45c"><rect x="605" y="804" width="32" height="32"/><rect x="573" y="836" width="96" height="32"/><rect x="541" y="868" width="160" height="32"/><rect x="605" y="756" width="32" height="32"/></g>
<text x="621" y="1690" text-anchor="middle" font-family="monospace" font-size="116" font-weight="700" fill="#c8a45c">桃源乡</text><text x="621" y="1770" text-anchor="middle" font-family="monospace" font-size="42" fill="#8b949e">我从种田开始修仙</text>
<rect x="401" y="1908" width="440" height="12" rx="6" fill="#2d333b"/><rect x="401" y="1908" width="220" height="12" rx="6" fill="#c8a45c"/><text x="621" y="1988" text-anchor="middle" font-family="monospace" font-size="30" fill="#6b7280">连接服务器 同步资源中</text></svg>